<?xml version="1.0" standalone="no"?>
<!DOCTYPE svg PUBLIC "-//W3C//DTD SVG 20010904//EN"
 "http://www.w3.org/TR/2001/REC-SVG-20010904/DTD/svg10.dtd">
<svg version="1.0" xmlns="http://www.w3.org/2000/svg"
 width="183.000000pt" height="183.000000pt" viewBox="0 0 183.000000 183.000000"
 preserveAspectRatio="xMidYMid meet">
<metadata>
Created by potrace 1.11, written by Peter Selinger 2001-2013
</metadata>
<g transform="translate(0.000000,183.000000) scale(0.100000,-0.100000)"
fill="#000000" stroke="none">
<path d="M623 1788 c-6 -18 -27 -75 -46 -125 -32 -84 -33 -91 -14 -78 12 8 25
15 29 15 5 0 8 -205 8 -455 0 -357 3 -455 13 -456 6 0 20 -2 29 -4 9 -2 21 2
26 8 5 7 9 201 8 450 0 242 2 444 6 450 4 7 11 7 22 -3 9 -7 19 -11 21 -8 5 5
-73 218 -85 231 -3 4 -11 -7 -17 -25z"/>
<path d="M925 1586 l-25 -25 0 -399 0 -400 32 -31 31 -31 225 3 c224 2 224 2
243 26 27 33 21 79 -13 104 -23 17 -44 20 -190 21 l-163 1 -1 352 c0 348 -1
353 -22 376 -31 33 -85 35 -117 3z"/>
<path d="M572 560 c-53 -33 -67 -86 -35 -140 41 -70 140 -66 176 8 14 29 15
32 3 79 -14 58 -89 86 -144 53z"/>
<path d="M1510 520 c6 -11 7 -21 3 -21 -4 -1 -154 -3 -333 -4 -179 -1 -331 -3
-337 -4 -8 0 -13 -15 -13 -36 l0 -35 58 0 c31 0 186 0 345 0 158 0 287 -2 287
-5 0 -4 -5 -15 -10 -26 -6 -10 -9 -19 -6 -19 3 0 54 19 113 42 l108 41 -35 15
c-19 8 -70 27 -113 43 -72 27 -77 27 -67 9z"/>
<path d="M307 480 c4 -13 -3 -19 -30 -24 -58 -11 -123 -61 -151 -118 -76 -152
31 -330 199 -330 100 0 194 78 216 179 11 46 10 56 -2 63 -11 7 -16 -2 -24
-44 -16 -80 -48 -123 -114 -152 -135 -61 -288 59 -266 208 11 72 45 118 112
152 41 20 64 21 57 1 -5 -13 -1 -13 35 0 23 8 49 18 58 23 18 11 12 16 -58 45
-34 14 -36 14 -32 -3z"/>
</g>
</svg>
